<mxfile host="app.diagrams.net" modified="2023-12-24T02:39:10.788Z" agent="Mozilla/5.0 (Windows NT 10.0; Win64; x64) AppleWebKit/537.36 (KHTML, like Gecko) Chrome/120.0.0.0 Safari/537.36" etag="q9BJOoGNtvYcHYN40NKj" version="22.1.11" type="github">
  <diagram name="Page-1" id="VL2nZxov5QGaUj7QIAtg">
    <mxGraphModel dx="1034" dy="412" grid="1" gridSize="10" guides="1" tooltips="1" connect="1" arrows="1" fold="1" page="1" pageScale="1" pageWidth="850" pageHeight="1100" math="0" shadow="0">
      <root>
        <mxCell id="0" />
        <mxCell id="1" parent="0" />
        <mxCell id="kMDyHV29VFaGugzyRK_e-24" style="edgeStyle=orthogonalEdgeStyle;rounded=0;orthogonalLoop=1;jettySize=auto;html=1;" edge="1" parent="1" source="kMDyHV29VFaGugzyRK_e-25">
          <mxGeometry relative="1" as="geometry">
            <mxPoint x="360" y="80" as="targetPoint" />
            <Array as="points">
              <mxPoint x="150" y="81" />
              <mxPoint x="201" y="81" />
            </Array>
          </mxGeometry>
        </mxCell>
        <mxCell id="kMDyHV29VFaGugzyRK_e-25" value="menu" style="rounded=1;whiteSpace=wrap;html=1;" vertex="1" parent="1">
          <mxGeometry x="90" y="160" width="120" height="60" as="geometry" />
        </mxCell>
        <mxCell id="kMDyHV29VFaGugzyRK_e-26" value="menu" style="swimlane;fontStyle=0;childLayout=stackLayout;horizontal=1;startSize=30;horizontalStack=0;resizeParent=1;resizeParentMax=0;resizeLast=0;collapsible=1;marginBottom=0;whiteSpace=wrap;html=1;" vertex="1" parent="1">
          <mxGeometry x="90" y="240" width="140" height="120" as="geometry" />
        </mxCell>
        <mxCell id="kMDyHV29VFaGugzyRK_e-27" value="name" style="text;strokeColor=none;fillColor=none;align=left;verticalAlign=middle;spacingLeft=4;spacingRight=4;overflow=hidden;points=[[0,0.5],[1,0.5]];portConstraint=eastwest;rotatable=0;whiteSpace=wrap;html=1;" vertex="1" parent="kMDyHV29VFaGugzyRK_e-26">
          <mxGeometry y="30" width="140" height="30" as="geometry" />
        </mxCell>
        <mxCell id="kMDyHV29VFaGugzyRK_e-28" value="category" style="text;strokeColor=none;fillColor=none;align=left;verticalAlign=middle;spacingLeft=4;spacingRight=4;overflow=hidden;points=[[0,0.5],[1,0.5]];portConstraint=eastwest;rotatable=0;whiteSpace=wrap;html=1;" vertex="1" parent="kMDyHV29VFaGugzyRK_e-26">
          <mxGeometry y="60" width="140" height="30" as="geometry" />
        </mxCell>
        <mxCell id="kMDyHV29VFaGugzyRK_e-29" value="ID" style="text;strokeColor=none;fillColor=none;align=left;verticalAlign=middle;spacingLeft=4;spacingRight=4;overflow=hidden;points=[[0,0.5],[1,0.5]];portConstraint=eastwest;rotatable=0;whiteSpace=wrap;html=1;" vertex="1" parent="kMDyHV29VFaGugzyRK_e-26">
          <mxGeometry y="90" width="140" height="30" as="geometry" />
        </mxCell>
        <mxCell id="kMDyHV29VFaGugzyRK_e-30" value="food item" style="rounded=1;whiteSpace=wrap;html=1;" vertex="1" parent="1">
          <mxGeometry x="365" y="70" width="120" height="60" as="geometry" />
        </mxCell>
        <mxCell id="kMDyHV29VFaGugzyRK_e-31" value="food&lt;span style=&quot;white-space: pre;&quot;&gt;&#x9;&lt;/span&gt;&lt;span style=&quot;white-space: pre;&quot;&gt;&#x9;&lt;/span&gt;&lt;span style=&quot;white-space: pre;&quot;&gt;&#x9;&lt;/span&gt;" style="swimlane;fontStyle=0;childLayout=stackLayout;horizontal=1;startSize=30;horizontalStack=0;resizeParent=1;resizeParentMax=0;resizeLast=0;collapsible=1;marginBottom=0;whiteSpace=wrap;html=1;" vertex="1" parent="1">
          <mxGeometry x="355" y="140" width="140" height="120" as="geometry" />
        </mxCell>
        <mxCell id="kMDyHV29VFaGugzyRK_e-32" value="name&lt;span style=&quot;white-space: pre;&quot;&gt;&#x9;&lt;/span&gt;&lt;span style=&quot;white-space: pre;&quot;&gt;&#x9;&lt;/span&gt;&lt;span style=&quot;white-space: pre;&quot;&gt;&#x9;&lt;/span&gt;&lt;span style=&quot;white-space: pre;&quot;&gt;&#x9;&lt;/span&gt;&lt;span style=&quot;white-space: pre;&quot;&gt;&#x9;&lt;/span&gt;&lt;span style=&quot;white-space: pre;&quot;&gt;&#x9;&lt;/span&gt;&lt;span style=&quot;white-space: pre;&quot;&gt;&#x9;&lt;/span&gt;" style="text;strokeColor=none;fillColor=none;align=left;verticalAlign=middle;spacingLeft=4;spacingRight=4;overflow=hidden;points=[[0,0.5],[1,0.5]];portConstraint=eastwest;rotatable=0;whiteSpace=wrap;html=1;" vertex="1" parent="kMDyHV29VFaGugzyRK_e-31">
          <mxGeometry y="30" width="140" height="30" as="geometry" />
        </mxCell>
        <mxCell id="kMDyHV29VFaGugzyRK_e-33" value="price" style="text;strokeColor=none;fillColor=none;align=left;verticalAlign=middle;spacingLeft=4;spacingRight=4;overflow=hidden;points=[[0,0.5],[1,0.5]];portConstraint=eastwest;rotatable=0;whiteSpace=wrap;html=1;" vertex="1" parent="kMDyHV29VFaGugzyRK_e-31">
          <mxGeometry y="60" width="140" height="30" as="geometry" />
        </mxCell>
        <mxCell id="kMDyHV29VFaGugzyRK_e-34" value="id" style="text;strokeColor=none;fillColor=none;align=left;verticalAlign=middle;spacingLeft=4;spacingRight=4;overflow=hidden;points=[[0,0.5],[1,0.5]];portConstraint=eastwest;rotatable=0;whiteSpace=wrap;html=1;" vertex="1" parent="kMDyHV29VFaGugzyRK_e-31">
          <mxGeometry y="90" width="140" height="30" as="geometry" />
        </mxCell>
        <mxCell id="kMDyHV29VFaGugzyRK_e-35" value="order item" style="rounded=1;whiteSpace=wrap;html=1;" vertex="1" parent="1">
          <mxGeometry x="600" y="10" width="120" height="60" as="geometry" />
        </mxCell>
        <mxCell id="kMDyHV29VFaGugzyRK_e-57" style="edgeStyle=orthogonalEdgeStyle;rounded=0;orthogonalLoop=1;jettySize=auto;html=1;entryX=0.5;entryY=1;entryDx=0;entryDy=0;" edge="1" parent="1" source="kMDyHV29VFaGugzyRK_e-36" target="kMDyHV29VFaGugzyRK_e-35">
          <mxGeometry relative="1" as="geometry">
            <mxPoint x="660" y="80" as="targetPoint" />
          </mxGeometry>
        </mxCell>
        <mxCell id="kMDyHV29VFaGugzyRK_e-62" style="edgeStyle=orthogonalEdgeStyle;rounded=0;orthogonalLoop=1;jettySize=auto;html=1;entryX=1;entryY=0.5;entryDx=0;entryDy=0;" edge="1" parent="1" source="kMDyHV29VFaGugzyRK_e-36" target="kMDyHV29VFaGugzyRK_e-39">
          <mxGeometry relative="1" as="geometry" />
        </mxCell>
        <mxCell id="kMDyHV29VFaGugzyRK_e-36" value="order" style="rounded=1;whiteSpace=wrap;html=1;" vertex="1" parent="1">
          <mxGeometry x="620" y="190" width="120" height="60" as="geometry" />
        </mxCell>
        <mxCell id="kMDyHV29VFaGugzyRK_e-63" style="edgeStyle=orthogonalEdgeStyle;rounded=0;orthogonalLoop=1;jettySize=auto;html=1;" edge="1" parent="1" source="kMDyHV29VFaGugzyRK_e-38" target="kMDyHV29VFaGugzyRK_e-36">
          <mxGeometry relative="1" as="geometry" />
        </mxCell>
        <mxCell id="kMDyHV29VFaGugzyRK_e-38" value="invoice" style="rounded=1;whiteSpace=wrap;html=1;" vertex="1" parent="1">
          <mxGeometry x="850" y="190" width="120" height="60" as="geometry" />
        </mxCell>
        <mxCell id="kMDyHV29VFaGugzyRK_e-39" value="table" style="rounded=1;whiteSpace=wrap;html=1;" vertex="1" parent="1">
          <mxGeometry x="400" y="310" width="120" height="60" as="geometry" />
        </mxCell>
        <mxCell id="kMDyHV29VFaGugzyRK_e-40" style="edgeStyle=orthogonalEdgeStyle;rounded=0;orthogonalLoop=1;jettySize=auto;html=1;entryX=0.686;entryY=0;entryDx=0;entryDy=0;entryPerimeter=0;" edge="1" parent="1" source="kMDyHV29VFaGugzyRK_e-35" target="kMDyHV29VFaGugzyRK_e-30">
          <mxGeometry relative="1" as="geometry" />
        </mxCell>
        <mxCell id="kMDyHV29VFaGugzyRK_e-41" value="order item" style="swimlane;fontStyle=0;childLayout=stackLayout;horizontal=1;startSize=30;horizontalStack=0;resizeParent=1;resizeParentMax=0;resizeLast=0;collapsible=1;marginBottom=0;whiteSpace=wrap;html=1;" vertex="1" parent="1">
          <mxGeometry x="750" y="10" width="140" height="120" as="geometry" />
        </mxCell>
        <mxCell id="kMDyHV29VFaGugzyRK_e-42" value="QTY" style="text;strokeColor=none;fillColor=none;align=left;verticalAlign=middle;spacingLeft=4;spacingRight=4;overflow=hidden;points=[[0,0.5],[1,0.5]];portConstraint=eastwest;rotatable=0;whiteSpace=wrap;html=1;" vertex="1" parent="kMDyHV29VFaGugzyRK_e-41">
          <mxGeometry y="30" width="140" height="30" as="geometry" />
        </mxCell>
        <mxCell id="kMDyHV29VFaGugzyRK_e-43" value="UNIT PRICE" style="text;strokeColor=none;fillColor=none;align=left;verticalAlign=middle;spacingLeft=4;spacingRight=4;overflow=hidden;points=[[0,0.5],[1,0.5]];portConstraint=eastwest;rotatable=0;whiteSpace=wrap;html=1;" vertex="1" parent="kMDyHV29VFaGugzyRK_e-41">
          <mxGeometry y="60" width="140" height="30" as="geometry" />
        </mxCell>
        <mxCell id="kMDyHV29VFaGugzyRK_e-44" value="ID" style="text;strokeColor=none;fillColor=none;align=left;verticalAlign=middle;spacingLeft=4;spacingRight=4;overflow=hidden;points=[[0,0.5],[1,0.5]];portConstraint=eastwest;rotatable=0;whiteSpace=wrap;html=1;" vertex="1" parent="kMDyHV29VFaGugzyRK_e-41">
          <mxGeometry y="90" width="140" height="30" as="geometry" />
        </mxCell>
        <mxCell id="kMDyHV29VFaGugzyRK_e-45" value="ORDER" style="swimlane;fontStyle=0;childLayout=stackLayout;horizontal=1;startSize=30;horizontalStack=0;resizeParent=1;resizeParentMax=0;resizeLast=0;collapsible=1;marginBottom=0;whiteSpace=wrap;html=1;" vertex="1" parent="1">
          <mxGeometry x="620" y="280" width="140" height="90" as="geometry" />
        </mxCell>
        <mxCell id="kMDyHV29VFaGugzyRK_e-46" value="ID" style="text;strokeColor=none;fillColor=none;align=left;verticalAlign=middle;spacingLeft=4;spacingRight=4;overflow=hidden;points=[[0,0.5],[1,0.5]];portConstraint=eastwest;rotatable=0;whiteSpace=wrap;html=1;" vertex="1" parent="kMDyHV29VFaGugzyRK_e-45">
          <mxGeometry y="30" width="140" height="30" as="geometry" />
        </mxCell>
        <mxCell id="kMDyHV29VFaGugzyRK_e-47" value="ORDER DATE" style="text;strokeColor=none;fillColor=none;align=left;verticalAlign=middle;spacingLeft=4;spacingRight=4;overflow=hidden;points=[[0,0.5],[1,0.5]];portConstraint=eastwest;rotatable=0;whiteSpace=wrap;html=1;" vertex="1" parent="kMDyHV29VFaGugzyRK_e-45">
          <mxGeometry y="60" width="140" height="30" as="geometry" />
        </mxCell>
        <mxCell id="kMDyHV29VFaGugzyRK_e-49" value="INVOICE" style="swimlane;fontStyle=0;childLayout=stackLayout;horizontal=1;startSize=30;horizontalStack=0;resizeParent=1;resizeParentMax=0;resizeLast=0;collapsible=1;marginBottom=0;whiteSpace=wrap;html=1;" vertex="1" parent="1">
          <mxGeometry x="840" y="270" width="140" height="120" as="geometry" />
        </mxCell>
        <mxCell id="kMDyHV29VFaGugzyRK_e-50" value="ID" style="text;strokeColor=none;fillColor=none;align=left;verticalAlign=middle;spacingLeft=4;spacingRight=4;overflow=hidden;points=[[0,0.5],[1,0.5]];portConstraint=eastwest;rotatable=0;whiteSpace=wrap;html=1;" vertex="1" parent="kMDyHV29VFaGugzyRK_e-49">
          <mxGeometry y="30" width="140" height="30" as="geometry" />
        </mxCell>
        <mxCell id="kMDyHV29VFaGugzyRK_e-51" value="PAYMENT METHOD" style="text;strokeColor=none;fillColor=none;align=left;verticalAlign=middle;spacingLeft=4;spacingRight=4;overflow=hidden;points=[[0,0.5],[1,0.5]];portConstraint=eastwest;rotatable=0;whiteSpace=wrap;html=1;" vertex="1" parent="kMDyHV29VFaGugzyRK_e-49">
          <mxGeometry y="60" width="140" height="30" as="geometry" />
        </mxCell>
        <mxCell id="kMDyHV29VFaGugzyRK_e-52" value="PAYMENT STATUS" style="text;strokeColor=none;fillColor=none;align=left;verticalAlign=middle;spacingLeft=4;spacingRight=4;overflow=hidden;points=[[0,0.5],[1,0.5]];portConstraint=eastwest;rotatable=0;whiteSpace=wrap;html=1;" vertex="1" parent="kMDyHV29VFaGugzyRK_e-49">
          <mxGeometry y="90" width="140" height="30" as="geometry" />
        </mxCell>
      </root>
    </mxGraphModel>
  </diagram>
</mxfile>
